<svg width="28" height="28"  viewBox="0 0 28 28" fill="none" xmlns="http://www.w3.org/2000/svg">
<path d="M17.0519 5.50196L17.0507 5.50319L5.60934 16.9445C4.98073 17.5731 4.24248 18.4527 3.95961 19.5C3.81404 20.0389 3.78816 20.6255 3.96101 21.2327C4.13307 21.8372 4.48921 22.4172 5.0395 22.9661C5.58869 23.5153 6.16864 23.8704 6.7729 24.0416C7.37964 24.2135 7.96555 24.1869 8.50369 24.0409C9.54928 23.7571 10.4273 23.0188 11.0555 22.3907L22.4956 10.9505C22.4959 10.9503 22.4962 10.95 22.4964 10.9497C23.1422 10.3067 23.8475 9.40481 24.1145 8.35199C24.3983 7.23313 24.1635 6.02468 23.0722 4.93336L22.5419 5.46369L23.0714 4.93254C21.9778 3.84224 20.7701 3.60734 19.6514 3.8902C18.5985 4.15641 17.6964 4.86041 17.0519 5.50196ZM13.5032 7.94932C13.6439 8.09008 13.8349 8.16911 14.0339 8.16899C14.233 8.16888 14.4239 8.08964 14.5645 7.94872L17.0275 5.48005C17.0277 5.47989 17.0279 5.47973 17.028 5.47957C17.1838 5.32378 17.335 5.18304 17.4875 5.05509C17.6971 4.87935 17.7944 4.60348 17.7414 4.33518C17.5967 3.60212 17.3 2.81938 16.6879 2.21737C16.0586 1.59841 15.1771 1.25 14.0279 1.25C12.8779 1.25 11.996 1.60038 11.3674 2.22136C10.7562 2.82527 10.4612 3.60982 10.3195 4.34381C10.269 4.60517 10.3608 4.8737 10.5608 5.04941C10.7473 5.21336 10.9139 5.36006 11.0786 5.52474L13.5032 7.94932ZM11.0792 22.4132L11.0786 22.4138C10.8978 22.5946 10.7365 22.7502 10.5762 22.8862C10.3664 23.0643 10.2709 23.343 10.3275 23.6123C10.4845 24.3598 10.7971 25.1495 11.4043 25.7576C12.03 26.3842 12.9009 26.75 14.0279 26.75C15.159 26.75 16.0327 26.3807 16.6593 25.7512C17.2676 25.1402 17.5803 24.3475 17.7346 23.5982C17.7893 23.3324 17.6962 23.0579 17.4912 22.8802C17.3212 22.7329 17.1734 22.6044 17.0275 22.4585L14.5639 19.9948C14.2712 19.7022 13.7968 19.7019 13.5038 19.9942L11.0792 22.4132ZM10.581 10.8659L11.1126 11.395C11.3264 11.1802 11.3899 10.8579 11.2736 10.5781C11.1573 10.2983 10.884 10.1159 10.581 10.1159H5.91061C4.99771 10.1159 3.86082 10.2561 2.92793 10.8126C1.93682 11.4038 1.25 12.4242 1.25 13.9665C1.25 15.0998 1.61905 15.9742 2.25027 16.6007C2.86273 17.2087 3.65729 17.5193 4.40803 17.6733C4.67235 17.7275 4.94541 17.6355 5.12309 17.4324C5.11984 17.4361 5.1214 17.4345 5.13052 17.425C5.14034 17.4148 5.1589 17.3955 5.18962 17.3639C5.23974 17.3124 5.30965 17.2411 5.39701 17.1522C5.57152 16.9748 5.81282 16.7306 6.09862 16.4419C6.67008 15.8647 7.41762 15.1116 8.16056 14.3638C8.90343 13.616 9.64145 12.8738 10.1938 12.3185L10.8603 11.6485L11.0467 11.4612L11.0958 11.4119L11.1083 11.3993L11.1115 11.3961L11.1123 11.3953L11.1125 11.3951L10.581 10.8659ZM23.6586 10.2585C23.3948 10.2066 23.1233 10.3 22.9472 10.5032C22.9478 10.5026 22.9428 10.5077 22.9318 10.519C22.9002 10.5515 22.8191 10.6349 22.6786 10.7778C22.5047 10.9545 22.2636 11.1985 21.9778 11.4872C21.4064 12.0644 20.6578 12.8186 19.9135 13.5678C19.1692 14.3169 18.4294 15.0609 17.8757 15.6176L17.2074 16.2893L17.0205 16.4772L16.9713 16.5266L16.9587 16.5393L16.9555 16.5425L16.9547 16.5433L16.9545 16.5435L17.486 17.0726L16.9544 16.5436C16.7407 16.7583 16.6772 17.0806 16.7935 17.3605C16.9098 17.6403 17.183 17.8226 17.486 17.8226H22.0894C22.9789 17.8226 24.122 17.7224 25.0619 17.1815C25.5456 16.9031 25.9783 16.5065 26.2854 15.9551C26.5912 15.406 26.75 14.744 26.75 13.9665C26.75 12.8195 26.4012 11.9391 25.7811 11.3106C25.1783 10.6995 24.3942 10.4031 23.6586 10.2585ZM13.4745 9.03312C13.7671 8.74047 13.7674 8.26607 13.4751 7.97307L11.0561 5.54849L11.0555 5.54788C10.4273 4.91974 9.54905 4.18117 8.50229 3.8982C7.96353 3.75255 7.37706 3.72674 6.76972 3.89952C6.16495 4.07157 5.58425 4.42772 5.03392 4.97805C4.22122 5.79075 3.84646 6.66173 3.8408 7.54477C3.83529 8.40321 4.1796 9.16652 4.59481 9.7862C4.74491 10.0102 5.00369 10.1364 5.27261 10.1167C5.27221 10.1167 5.27553 10.1167 5.2828 10.1165C5.31256 10.116 5.40855 10.1142 5.58744 10.1124C5.79003 10.1104 6.06795 10.1084 6.39616 10.1064C7.05232 10.1025 7.90621 10.0988 8.75348 10.0957C9.60063 10.0925 10.4407 10.0899 11.069 10.0881L11.8269 10.0859L12.0388 10.0854L12.0945 10.0852L12.1088 10.0852L12.1124 10.0852L12.1133 10.0852H12.1135L12.1117 9.3352L12.6421 9.86553L13.4745 9.03312ZM14.5814 18.911C14.4406 19.0518 14.3616 19.2427 14.3617 19.4418C14.3618 19.6408 14.4411 19.8317 14.582 19.9723L17.0507 22.4354C17.0509 22.4356 17.0511 22.4358 17.0513 22.436C17.696 23.0806 18.5978 23.786 19.65 24.0531C20.7685 24.337 21.9756 24.1019 23.0666 23.0108C23.8669 22.2106 24.2239 21.3308 24.2221 20.4419C24.2203 19.5787 23.8805 18.7962 23.4583 18.1567C23.3093 17.9308 23.0501 17.8028 22.7802 17.8217C22.7828 17.8215 22.7835 17.8214 22.7816 17.8214C22.7768 17.8215 22.7541 17.8222 22.7029 17.8231C22.6435 17.8241 22.5618 17.8251 22.4601 17.8261C22.2571 17.8282 21.9791 17.8302 21.6512 17.8322C20.9955 17.8361 20.1434 17.8397 19.2982 17.8429C18.4531 17.846 17.6155 17.8486 16.9892 17.8505L16.2336 17.8526L16.0224 17.8532L15.9669 17.8533L15.9526 17.8533L15.949 17.8534L15.9481 17.8534H15.9479L15.9497 18.6034L15.4194 18.073L14.5814 18.911Z" stroke="white" stroke-width="1.5" stroke-linejoin="round"/>
</svg>
